<?xml version="1.0" encoding="utf-8"?>
<!-- Generator: Adobe Illustrator 19.1.0, SVG Export Plug-In . SVG Version: 6.00 Build 0)  -->
<svg version="1.1" xmlns="http://www.w3.org/2000/svg" xmlns:xlink="http://www.w3.org/1999/xlink" x="0px" y="0px"
	 viewBox="0 0 245.8 244.4" style="enable-background:new 0 0 245.8 244.4;" xml:space="preserve">
<style type="text/css">
	.st0{fill:#FFF;}
	.st1{fill:none;}
	.st2{fill:#34495E;}
</style>
<g id="Calque_1">
	<g>
		<path class="st0" d="M160.4,50.5c2.9,10.2-11.2,17.9-14.2,19.2c-6.5,2.7-14.7-10-22.1-5.4c-4.4,5.1-12,9.5-18.9,9.9
			c-2.7,0.2-5.7-0.5-8.2-1.7c-3-1.3-5.1-0.9-7.1,1.4c-5.3,6.4-12.2,8.6-20.3,8.7c-8.3,0.1-14.9,4.3-20,10.7
			c-3.9,4.9-2.8,9.8,2.7,12.4c4.5,2.1,5.3,4.6,3.3,9c-0.7,1.4-0.9,3.2-0.9,4.8c-0.1,6-0.1,12-0.2,18c0,6.3,1.7,8.1,7.8,8.2
			c5.8,0.1,11.6,0,18.5,0c-0.8-3.5-1.7-6.3-2-9.1c-0.2-1.7,0.1-4.1,1.1-5.2c5.7-5.7,17.6-6.4,24.2-1.9c3.1,2.1,4.7,4.5,3.2,8.4
			c-0.8,2.1-0.8,4.5-1.2,7.4c18.2,0,36,0,54.1,0c0.4-2.6,0.8-5,1-7.4c0.7-7.8,1.3-15.5,1.8-23.3c0.2-3.3,1.8-4.2,4.8-4.1
			c19.2,0.1,38.3,0,57.5,0.1c5.3,0,5.8,0.9,4.8,9.2c-7.8,0-15.3,0.1-22.7-0.1c-3.5-0.1-5.2,1.1-5.3,4.7c-0.4,10.3-1,20.6-1.7,30.9
			c-0.2,3.7,1.9,4,4.7,4c8.7,0,17.3,0,26,0c1.8,0,3.6,0,5.7,0c0,16.6,0,32.6,0,49.3c-3.8,0-7.3,0-11.6,0c5.9,12.9,3.6,23.5-7.1,31.5
			c-7.5,5.6-18.4,5-25.8-0.4c-9.1-6.6-11.3-15.7-7.2-30.8c-5.1,0-10.2,0-15.7,0c4.6,13.1,3,24.7-9.6,32.2
			c-8.1,4.8-17.1,4.2-24.4-1.8c-9.6-7.9-11.6-18.2-6.5-30.2c-5.3,0-10.1,0-15.7,0c4.2,10.8,2.5,20.5-5.9,28.6
			c-4.3,4.1-9.8,5.6-15.7,5.3c-8.4-0.5-14.9-4.3-19.1-11.7c-4.1-7.1-3.8-14.6-0.4-22.4c-5.8,0-10.5,0-16.1,0
			c4.8,13.3,2.3,24.4-10,31.6c-8.2,4.8-17.1,4-24.4-2.1c-8.9-7.4-11.7-17.1-6.7-29.3c-3.9-0.2-7.1-0.6-10.3-0.4
			c-3.6,0.2-4.8-1.2-4.5-4.6c0.2-2.6,0-5.3,0-8.4c3.5-0.3,6.5-0.5,9.8-0.7c-8.1-14.2-6.7-28.7-2.7-43.2c0.6-2.2,3.9-4.6,6.3-5.1
			c4.1-0.9,8.6-0.9,12.9-0.5c5.1,0.5,6.7-2.4,7-6.3c0.4-7.5,1.3-15.1,0.1-22.4c-0.8-4.7-1.6-11.1,4.5-11.9c0.4-0.3-2.7-1.9-3.1-2.7
			c-4.4-7.3-3.5-15.5-1.9-22.9c2-9,9.5-15,17.5-18.7c6-2.8,9-6.1,8.6-12.7c-0.3-4.9-0.6-13.7,3.2-16.7c5.2-4.1,19.7-0.2,24.6-4.7
			c4.6-4.3,1.8-12.1,6.2-16.7c6-6.1,10.4-6.4,17.8-2.3c1.6,0.9,4.3,0.6,6.2,0c3.6-1.1,8.6-6.5,12.2-7.3c14.1-3.1,21.1,3.3,30.1,15.8
			c6.3,5.3,10.6,16.1,4.1,19.3c-4.7,2.3-7,7.5-5.3,10.2L160.4,50.5z"/>
	</g>
	<rect x="210.2" y="-52.1" class="st1" width="242.5" height="244.4"/>
</g>
<g id="Calque_2">
	<path class="st2" d="M169.5,50.5c2.9,10.2-11.2,17.9-14.2,19.2c-6.5,2.7-14.7-10-22.1-5.4c-4.4,5.1-12,9.5-18.9,9.9
		c-2.7,0.2-5.7-0.5-8.2-1.7c-3-1.3-5.1-0.9-7.1,1.4c-5.3,6.4-12.2,8.6-20.3,8.7c-8.3,0.1-14.9,4.3-20,10.7
		c-3.9,4.9-2.8,9.8,2.7,12.4c4.5,2.1,5.3,4.6,3.3,9c-0.7,1.4-0.9,3.2-0.9,4.8c-0.1,6-0.1,12-0.2,18c0,6.3,1.7,8.1,7.8,8.2
		c5.8,0.1,11.6,0,18.5,0c-0.8-3.5-1.7-6.3-2-9.1c-0.2-1.7,0.1-4.1,1.1-5.2c5.7-5.7,17.6-6.4,24.2-1.9c3.1,2.1,4.7,4.5,3.2,8.4
		c-0.8,2.1-0.8,4.5-1.2,7.4c18.2,0,36,0,54.1,0c0.4-2.6,0.8-5,1-7.4c0.7-7.8,1.3-15.5,1.8-23.3c0.2-3.3,1.8-4.2,4.8-4.1
		c19.2,0.1,38.3,0,57.5,0.1c5.3,0,5.8,0.9,4.8,9.2c-7.8,0-15.3,0.1-22.7-0.1c-3.5-0.1-5.2,1.1-5.3,4.7c-0.4,10.3-1,20.6-1.7,30.9
		c-0.2,3.7,1.9,4,4.7,4c8.7,0,17.3,0,26,0c1.8,0,3.6,0,5.7,0c0,16.6,0,32.6,0,49.3c-3.8,0-7.3,0-11.6,0c5.9,12.9,3.6,23.5-7.1,31.5
		c-7.5,5.6-18.4,5-25.8-0.4c-9.1-6.6-11.3-15.7-7.2-30.8c-5.1,0-10.2,0-15.7,0c4.6,13.1,3,24.7-9.6,32.2c-8.1,4.8-17.1,4.2-24.4-1.8
		c-9.6-7.9-11.6-18.2-6.5-30.2c-5.3,0-10.1,0-15.7,0c4.2,10.8,2.5,20.5-5.9,28.6c-4.3,4.1-9.8,5.6-15.7,5.3
		c-8.4-0.5-14.9-4.3-19.1-11.7c-4.1-7.1-3.8-14.6-0.4-22.4c-5.8,0-10.5,0-16.1,0c4.8,13.3,2.3,24.4-10,31.6
		c-8.2,4.8-17.1,4-24.4-2.1C21.8,231,19,221.3,24,209.2c-3.9-0.2-7.1-0.6-10.3-0.4c-3.6,0.2-4.8-1.2-4.5-4.6c0.2-2.6,0-5.3,0-8.4
		c3.5-0.3,6.5-0.5,9.8-0.7c-8.1-14.2-6.7-28.7-2.7-43.2c0.6-2.2,3.9-4.6,6.3-5.1c4.1-0.9,8.6-0.9,12.9-0.5c5.1,0.5,6.7-2.4,7-6.3
		c0.4-7.5,1.3-15.1,0.1-22.4c-0.8-4.7-1.6-11.1,4.5-11.9c0.4-0.3-2.7-1.9-3.1-2.7c-4.4-7.3-3.5-15.5-1.9-22.9c2-9,9.5-15,17.5-18.7
		c6-2.8,9-6.1,8.6-12.7c-0.3-4.9-0.6-13.7,3.2-16.7c5.2-4.1,19.7-0.2,24.6-4.7c4.6-4.3,1.8-12.1,6.2-16.7c6-6.1,10.4-6.4,17.8-2.3
		c1.6,0.9,4.3,0.6,6.2,0c3.6-1.1,8.6-6.5,12.2-7.3c14.1-3.1,21.1,3.3,30.1,15.8c6.3,5.3,10.6,16.1,4.1,19.3c-4.7,2.3-7,7.5-5.3,10.2
		L169.5,50.5z"/>
</g>
</svg>
